<svg xmlns="http://www.w3.org/2000/svg" xmlns:xlink="http://www.w3.org/1999/xlink" width="22" height="22" viewBox="0 0 22 22">
    <defs>
        <circle id="a" cx="11" cy="11" r="11"/>
    </defs>
    <g fill="none" fill-rule="evenodd">
        <mask id="b" fill="#fff">
            <use xlink:href="#a"/>
        </mask>
        <use fill="#34344D" xlink:href="#a"/>
        <path fill="#EF492A" fill-rule="nonzero" d="M18 9.631v.624c-.01.042-.021.085-.028.128a5.197 5.197 0 0 1-.655 1.935c-.29.474-.624.921-.997 1.335a16.067 16.067 0 0 1-1.54 1.535c-.503.435-1.014.861-1.54 1.254-.7.525-1.428 1.017-2.142 1.526a.13.13 0 0 1-.17 0c-.63-.44-1.275-.862-1.887-1.326a45.337 45.337 0 0 1-1.881-1.534 13.611 13.611 0 0 1-2.1-2.23 5.267 5.267 0 0 1-.947-2.092A6.276 6.276 0 0 1 4 10.274v-.643l.024-.107c.061-.279.1-.558.189-.836A3.803 3.803 0 0 1 5.996 6.52a3.837 3.837 0 0 1 2.624-.456c.879.144 1.68.588 2.268 1.254.029.04.054.082.074.126.153-.152.266-.27.385-.38a3.957 3.957 0 0 1 5.368-.017 3.85 3.85 0 0 1 1.155 1.93c.061.213.09.433.13.654z" mask="url(#b)" transform="matrix(-1 0 0 1 22 0)"/>
    </g>
</svg>
