<svg xmlns="http://www.w3.org/2000/svg" width="40" height="40" viewBox="0 0 40 40">
    <defs>
        <circle id="a" cx="20" cy="20" r="20"/>
    </defs>
    <g fill="none" fill-rule="evenodd">
        <circle cx="20" cy="20" r="19" stroke="#090929" stroke-width="2"/>
        <path fill="#FFFE00" fill-rule="nonzero" d="M22.18 28.933v.001a2.417 2.417 0 0 1-4.363 0 14.31 14.31 0 0 0-6.751-6.751 2.417 2.417 0 0 1 0-4.363 14.319 14.319 0 0 0 6.753-6.753v-.001a2.417 2.417 0 0 1 4.364 0 14.31 14.31 0 0 0 6.751 6.751 2.417 2.417 0 0 1 0 4.363 14.319 14.319 0 0 0-6.753 6.753z"/>
    </g>
</svg>
