
<svg width="30px" height="30px" viewBox="0 0 30 30" version="1.1" xmlns="http://www.w3.org/2000/svg" xmlns:xlink="http://www.w3.org/1999/xlink">
    <!-- Generator: Sketch 44.1 (41455) - http://www.bohemiancoding.com/sketch -->
    <desc>Created with Sketch.</desc>
    <defs></defs>
    <g id="Page-1" stroke="none" stroke-width="1" fill="none" fill-rule="evenodd">
        <g id="btn-normal-close-grey" transform="translate(-14.000000, -14.000000)" fill-rule="nonzero" fill="#C5C5C5">
            <g id="Group" transform="translate(14.000000, 14.000000)">
                <g id="d-link">
                    <path d="M20.685,14.95 L28.935,6.7 C29.130191,6.50475007 29.130191,6.18824993 28.935,5.993 L23.907,0.965 C23.8131957,0.870958299 23.6858273,0.818106216 23.553,0.818106216 C23.4201727,0.818106216 23.2928043,0.870958299 23.199,0.965 L14.95,9.215 L6.7,0.965 C6.50475007,0.769809031 6.18824993,0.769809031 5.993,0.965 L0.965,5.993 C0.870958299,6.08680426 0.818106216,6.21417274 0.818106216,6.347 C0.818106216,6.47982726 0.870958299,6.60719574 0.965,6.701 L9.215,14.95 L0.965,23.2 C0.769809031,23.3952499 0.769809031,23.7117501 0.965,23.907 L5.993,28.935 C6.08680426,29.0290417 6.21417274,29.0818938 6.347,29.0818938 C6.47982726,29.0818938 6.60719574,29.0290417 6.701,28.935 L14.95,20.685 L23.2,28.935 C23.3952499,29.130191 23.7117501,29.130191 23.907,28.935 L28.935,23.907 C29.0290417,23.8131957 29.0818938,23.6858273 29.0818938,23.553 C29.0818938,23.4201727 29.0290417,23.2928043 28.935,23.199 L20.685,14.95 Z" id="d"></path>
                </g>
            </g>
        </g>
    </g>
</svg>
