
<svg width="429px" height="135px" viewBox="0 0 429 135" version="1.1" xmlns="http://www.w3.org/2000/svg" xmlns:xlink="http://www.w3.org/1999/xlink">
    <!-- Generator: Sketch 44.1 (41455) - http://www.bohemiancoding.com/sketch -->
    <desc>Created with Sketch.</desc>
    <defs></defs>
    <g id="Page-1" stroke="none" stroke-width="1" fill="none" fill-rule="evenodd">
        <g id="strip-body" fill-rule="nonzero" fill="#FCB515">
            <g id="Group" transform="translate(214.500000, 67.500000) scale(-1, 1) rotate(-180.000000) translate(-214.500000, -67.500000) ">
                <g id="b-link">
                    <path d="M0,0 C58.266,14.878 129.766,22.244 214.5,22.098 C299.234,21.952 370.734,14.586 429,0 L429,105.916 C428.999824,110.584928 425.768848,114.632365 421.216,115.667 C411.958,117.772 404.596,119.342 399.13,120.379 C347.845,130.11 286.302,134.984 214.5,134.999 C144.965,135.016 85.05,130.45 34.757,121.304 C28.116,120.097 19.13,118.214 7.799,115.657 C3.23909625,114.628135 0.000361409914,110.577536 0,105.903 L0,0 Z" id="b"></path>
                </g>
            </g>
        </g>
    </g>
</svg>
