<?xml version="1.0" standalone="no"?>
<!DOCTYPE svg PUBLIC "-//W3C//DTD SVG 1.1//EN" "http://www.w3.org/Graphics/SVG/1.1/DTD/svg11.dtd">
<svg xmlns="http://www.w3.org/2000/svg">
<metadata>Generated by Fontastic.me</metadata>
<defs>
<font id="codewards-new" horiz-adv-x="512">
<font-face font-family="codewards-new" units-per-em="512" ascent="480" descent="-32"/>
<missing-glyph horiz-adv-x="512" />

<glyph glyph-name="belt" unicode="&#97;" d="M478 295l0-26-33-1c-6 0-12-4-14-10l-49-74c-4-6-10-10-18-10l-224 0c-7 0-14 4-17 10l-49 74c-2 6-8 10-15 10l-32 1 0 26-14 0c-7 0-13 6-13 13l0 30c0 7 6 12 13 12l475 0c7 0 13-5 13-12l0-30c0-7-6-13-13-13z m-129-39l-206 0c-6 0-10-6-7-12l17-26c2-3 5-5 8-5l85 0 86 0c3 0 6 2 7 5l18 26c3 6-1 12-8 12z"/>
<glyph glyph-name="box" unicode="&#98;" d="M510 247l0 23-12 10 0 77 12 10 0 33-94 72-78 0-10-10-143 0-10 10-78 0-92-72 0-33 10-10 0-77-10-10 0-43 0 0 0-153 505 0 0 173z"/>
<glyph glyph-name="cat" unicode="&#99;" d="M499 284c0 110-62 215-88 215-22 0-76-41-112-80-13 3-27 4-42 4-14 0-29-1-42-4-36 39-90 80-112 80-26 0-88-105-88-215-7-20-13-42-13-63 0-116 87-209 255-209 168 0 255 93 255 209 0 21-6 43-13 63z"/>
<glyph glyph-name="detect" unicode="&#100;" d="M153 419l0 13c11 8 17 21 17 35 0 26-19 45-44 45-26 0-45-19-45-45 0-16 8-27 17-35l0-432 55 0 0 210 265 101z"/>
<glyph glyph-name="download" unicode="&#101;" d="M86 328c-4 0-7 2-9 5-1 4 0 8 2 11l164 165c2 1 4 2 7 2 2 0 5-1 7-2l163-165c3-3 4-7 2-11-1-3-5-5-9-5l-112 0 0-219c0-5-4-9-10-9l-88 0c-6 0-10 4-10 9l0 219z m419-270l0-48c0-5-4-9-9-9l-481 0c-5 0-9 4-9 9l0 48c0 7 5 12 12 12l476 0c6 0 11-5 11-12z"/>
<glyph glyph-name="android" unicode="&#103;" d="M278 402l0-38 128 0c29 0 53-24 53-53l0-29 15 0c10 0 18-8 18-18l0-97c0-9-8-17-18-17l-15 0 0-95c0-30-24-53-53-53l-305 0c-30 0-53 23-53 53l0 95-16 0c-9 0-17 8-17 17l0 97c0 10 8 18 17 18l16 0 0 29c0 29 23 53 53 53l127 0 0 38c-24 12-37 39-31 65 6 26 29 45 56 45 27 0 50-19 56-45 6-26-7-53-31-65z m-111-212c16 0 32 8 40 23 9 14 9 32 0 46-8 14-24 23-40 23-25-1-45-21-45-46 0-25 20-45 45-46z m173 0c17 0 32 8 41 23 8 14 8 32 0 46-9 14-24 23-41 23-25-1-44-21-44-46 0-25 19-45 44-46z m-182-60l0-48 191 0 0 48z"/>
<glyph glyph-name="crane" unicode="&#104;" d="M295 336c4 2 7 6 10 9l67 80c13 16 16 38 7 57-9 18-28 30-48 30l-160 0c-21 0-39-12-48-30-9-19-6-41 7-57l67-80 1-2c-69-24-119-89-119-166 0-98 79-177 177-177 98 0 177 79 177 177 0 29-24 53-53 53-30 0-53-24-53-53 0-39-32-71-71-71-39 0-71 32-71 71 0 39 32 70 71 70 21 0 40 12 48 32 9 19 5 41-9 57z"/>
<glyph glyph-name="cup" unicode="&#105;" d="M331 253c106 22 141 118 148 160l-67 0c-12-86-46-123-75-153z m85 192l80 0c9 0 16-7 16-16 0-54-50-199-207-211-6-12-9-25-9-43 0-53 34-72 65-88 21-12 40-22 40-44 0-8-7-15-16-15l-258 0c-5 0-9 1-11 4-3 3-5 7-5 11 0 22 20 32 40 44 31 16 65 35 65 88 0 18-3 31-9 43-157 12-207 157-207 211 0 9 7 16 16 16l80 0c-1 14-1 27-1 41 0 9 7 16 15 16l292 0c8 0 15-7 15-16 0-15 0-28-1-41z m-316-32l-67 0c7-42 42-138 148-160-2 2-4 4-6 7-29 30-63 67-75 153z"/>
<glyph glyph-name="drill" unicode="&#106;" d="M331 227l-150-80 0 70 150 80 0-70z m0-43l0-122-75-56-75 56 0 43 150 79z m45 178l-1 1-2-1-258 0c-5 0-9 4-9 9l0 132c0 5 4 9 9 9l282 0c5 0 9-4 9-9l0-132c0-5-4-9-9-9z m-45-23l-150-79 0 102 150 0z"/>
<glyph glyph-name="driller" unicode="&#107;" d="M256 285l0-151c0-1 1-3 2-5l71-113c1-3 4-4 7-4 3 0 6 1 8 4l70 113c1 2 2 4 2 5l0 151 70 0c4 0 8 3 8 8l0 78c0 5-4 9-8 9l-70 0 0 110c0 5-4 9-9 9l-142 0c-5 0-9-4-9-9l0-110-238 0c-5 0-9-4-9-9l0-215c0-5 4-9 9-9l77 0c5 0 9 4 9 9l0 120c0 5 4 9 9 9z"/>
<glyph glyph-name="exit" unicode="&#108;" d="M338 14l-300 0c-7 0-12 6-12 13l0 472c0 7 5 13 12 13l300 0c8 0 13-6 13-13l0-51c0-7-5-13-13-13l-221 0c-7 0-13-5-13-12l0-320c0-7 6-12 13-12l221 0c7 0 13-6 13-13l0-51c0-7-6-13-13-13z m11 131l0 73-177 0c-7 0-12 6-12 13l0 64c0 7 5 13 12 13l177 0 0 76c0 5 3 10 8 12 5 2 10 1 14-3l106-112c5-5 5-12 1-17l-107-127c-3-4-9-6-14-4-5 2-8 7-8 12z"/>
<glyph glyph-name="if-else" unicode="&#109;" d="M76 230c-48-11-81-56-75-105 5-48 46-86 95-86 49 0 91 38 96 86 5 49-27 94-75 105l0 90 60 0 76-76 75 76 61 0 0-100-64 0 0-168 169 0 0 168-64 0 0 141-77 0-100 100-100-100-77 0z"/>
<glyph glyph-name="step-forward" unicode="&#126;" d="M494 250l-316-242c-2-2-4-2-6-1-2 1-4 3-4 6l0 484c0 2 2 4 4 5 2 1 4 1 6-1l316-242c2-1 3-3 3-4 0-2-1-4-3-5z m-476 249l66 0c3 0 6-3 6-6l0-477c0-3-3-6-6-6l-66 0c-3 0-6 3-6 6l0 477c0 3 3 6 6 6z"/>
<glyph glyph-name="scan-rock" unicode="&#111;" d="M345 469l-249-112-96-119 80-191 356 0 76 176z m8-258l-231-123 202 154 12 173 22-172 115-20z"/>
<glyph glyph-name="saw" unicode="&#112;" d="M464 106l-24 66c5 10 10 21 12 32l58 81-60 35c-5 14-11 27-19 39l-20 95-64-17c-13 6-25 10-37 14l-89 58-35-64c-12-5-22-9-33-15l-102-24 23-61c-7-12-12-26-15-40l-57-84 63-34c4-13 10-24 16-35l23-106 68 28c9-5 19-8 28-12l84-59 35 62c14 4 26 10 38 16z m-346 149c0 77 61 137 138 137 77 0 139-60 139-137 0-77-62-139-139-139-77 0-138 62-138 139z m229 1c0 49-41 89-91 89-50 0-90-40-90-89 0-49 40-89 90-89 50 0 91 40 91 89z"/>
<glyph glyph-name="ico-spin" unicode="&#113;" d="M356 371c0 53-43 97-97 97-54 0-97-44-97-97 0-25 11-44 11-56 0-33-16-62-53-67-72-2-111-46-111-100 0-45 31-85 76-95 44-10 89 13 109 54 10 26 36 44 65 44 29 0 54-18 65-44 16-34 50-56 88-56 53 1 96 44 96 97 0 54-43 97-96 98-38 1-67 32-67 69 0 12 11 25 11 56z"/>
<glyph glyph-name="rotate" unicode="&#114;" d="M368 359c-47 42-113 53-171 29-22-10-41-24-56-41-6-6-12-15-20-28-3-4-8-5-12-3l-72 36c-3 1-4 3-5 6-1 2 0 5 1 7 12 19 21 33 29 42 26 32 59 56 97 72 96 41 205 19 279-50l43 44c3 2 6 3 10 2 3-2 5-5 5-9l0-162c0-2-1-4-2-6-2-2-4-3-7-3l-162 0c-3 0-7 2-8 6-1 3-1 7 2 9l49 49z m-53-246c19 8 35 19 49 33 7 7 15 18 24 32 3 4 8 6 12 3l72-37c2-1 4-3 4-6 1-2 1-5-1-7-11-18-20-32-28-40-25-30-56-53-91-69-96-42-205-23-280 45l-37-38c-3-4-9-5-13-3-5 2-8 6-8 11l-3 151c0 3 1 6 4 8 2 3 5 4 8 4l150 3c5 0 10-3 12-8 2-4 1-10-2-13l-43-44c48-41 114-51 171-25z"/>
<glyph glyph-name="rollercoaster" unicode="&#115;" d="M509 266l-21 0-20 125-104 0-47-80-116 0 0 80-85 0-82-125-31 0 0-54 26 0 10-36 36 0c10-31 39-55 73-55 35 0 64 22 74 55l77 0c10-31 39-55 73-55 34 0 63 22 73 55l52 0 0 36 13 0 0 54z"/>
<glyph glyph-name="robot" unicode="&#116;" d="M510 205l-54 242-22 23-43 0-23-23 0-94-23 0-15 49-16 0-89-1-16 0-15-49 0-82 34 0 0-21-83 0-9-7-3 0-50 59-27 0 0 15-54 0 0-90 54 0 0-22 87-106 260 0 48 38 0 17 31 0z"/>
<glyph glyph-name="put" unicode="&#118;" d="M187 364l0 139c0 5 4 9 10 9l88 0c6 0 10-4 10-9l0-139 112 0c4 0 8-2 9-5 2-4 1-8-2-11l-163-165c-2-1-5-2-7-2-3 0-5 1-7 2l-164 165c-2 3-3 7-2 11 2 3 5 5 9 5z m-87-253c0-5 4-10 9-10l281 0c5 0 9 5 9 10l0 92c0 5 5 9 10 9l81 0c5 0 9-4 9-9l0-192c0-5-4-9-9-9l-481 0c-5 0-9 4-9 9l0 192c0 5 4 9 9 9l81 0c6 0 10-4 10-9z"/>
<glyph glyph-name="reload" unicode="&#119;" d="M28 428c-4 3-9 4-14 2-4-2-7-7-7-11l0-185c1-4 2-6 4-8 3-3 6-4 9-4l190 35c6-1 10 3 12 7 1 5 0 11-4 14l-52 46c25 46 71 65 123 60 51-5 95-41 111-91 14-50-2-104-42-137-40-32-96-38-142-13-1 1-3 1-3 1-5 3-10 3-13 0l-57-64c-2-2-2-5-2-8 0-3 2-5 4-6l2-2c94-64 223-50 301 37 86 96 78 242-17 328-95 85-241 77-327-19-6-7-14-15-19-23z"/>
<glyph glyph-name="pump" unicode="&#120;" d="M61 111l0-62 390 0 0 62-74 0 43 39-43 39 43 40-43 39 43 39-43 41 74 0 0 60-76 0-22 55-194 0-22-55-76 0 0-60 74 0-43-41 43-39-43-39 43-40-43-39 43-39z"/>
<glyph glyph-name="zoo" unicode="&#121;" d="M451 119l0 250-33 0-25 138-272 0-27-138-33 0 0-250 156 0 0-70-33 0 0-47 144 0 0 47-33 0 0 70z m-297 251l15 96 176 0 13-96z"/>
<glyph glyph-name="valve" unicode="&#122;" d="M480 270l-116 0-11 66-77 0 0 55 48 0 50 36 70 0c13 0 24 10 24 24 0 13-11 23-24 23l-70 0-46-35-140 0-48 37-70 0c-14 0-24-10-24-24 0-13 12-25 24-25l70 0 48-36 46 0 0-56-77 0-10-67-115 0 0-183 125 0 17-49 162 0 17 49 125 0 0 185z"/>
<glyph glyph-name="upload" unicode="&#65;" d="M193 283l0 219c0 5 4 9 10 9l88 0c6 0 10-4 10-9l0-219 112 0c4 0 8-2 9-5 2-4 1-8-2-11l-163-165c-2-1-5-2-7-2-3 0-5 1-7 2l-164 165c-2 3-3 7-2 11 2 3 5 5 9 5z m312-225l0-48c0-5-4-9-9-9l-481 0c-5 0-9 4-9 9l0 48c0 7 5 12 12 12l476 0c6 0 11-5 11-12z"/>
<glyph glyph-name="truck" unicode="&#66;" d="M1 188l58 0 7-3c-4-10-6-20-6-30 0-48 39-87 86-87 48 0 87 39 87 87l62 0c0-48 39-87 87-87 48 0 86 39 86 87 0 22-9 43-23 58l7 29 27 0 33 105-356 0-22 48-134 0 0-144z"/>
<glyph glyph-name="start" unicode="&#67;" d="M257 506c-139 0-251-112-251-251 0-139 112-251 251-251 139 0 251 112 251 251 0 139-112 251-251 251z m186-258l-278-176c-2-1-3-2-4 0-2 1-3 1-3 3l0 354c0 2 1 3 3 4 1 1 2 1 4-1l278-176c1-1 2-3 2-4 0-1-1-3-2-4z"/>
<glyph glyph-name="shoot" unicode="&#68;" d="M322 255c0-37-30-66-66-66-37 0-66 29-66 66 0 36 29 66 66 66 36 0 66-30 66-66z m-66-211c-117 0-211 94-211 211 0 116 94 211 211 211 116 0 211-95 211-211 0-117-95-211-211-211z m0 50c89 0 161 72 161 161 0 89-72 161-161 161-89 0-161-72-161-161 0-89 72-161 161-161z m9 282l-18 0c-10 0-18 8-18 18l0 100c0 10 8 18 18 18l18 0c9 0 17-8 17-18l0-100c0-10-8-18-17-18z m0-375l-18 0c-10 0-18 7-18 17l0 100c0 10 8 18 18 18l18 0c9 0 17-8 17-18l0-100c0-10-8-17-17-17z m109 248l0 17c0 10 8 18 18 18l100 0c10 0 18-8 18-18l0-17c0-10-8-18-18-18l-100 0c-10 0-18 8-18 18z m-372-3l0 18c0 9 7 17 17 17l100 0c10 0 18-7 18-17l0-18c0-10-8-18-18-18l-100 0c-10 0-17 8-17 18z"/>
<glyph glyph-name="scanner" unicode="&#69;" d="M353 258c18 10 23 32 13 51-9 17-32 23-50 13-15-9-21-25-18-40l-50-22-97 170c-52-47-72-125-54-199l-97-55 70-121 96 55c55-51 130-72 199-52l-99 170 43 32c13-7 29-10 44-2z m-36 142c-14-3-8-23 7-21 70 13 128-90 82-143-8-12 6-26 17-16 56 73-14 196-106 180z m13 63c-14-4-8-22 7-21 111 20 199-139 128-223-8-12 7-27 17-17 83 101-20 284-152 261z"/>
<glyph glyph-name="scan-wood" unicode="&#70;" d="M416 395l-233-113 199 128-36 14-346-173 0-48 192-117 319 227 1 42z m-224-261l-137 83 45-17 149 64-109-79 52-17 277 155z"/>
<glyph glyph-name="stop" unicode="&#71;" d="M24 488l464 0 0-464-464 0z"/>
<glyph glyph-name="install" unicode="&#72;" d="M193 363l0 139c0 5 4 9 10 9l88 0c6 0 10-4 10-9l0-139 112 0c4 0 8-2 9-5 2-4 1-8-2-11l-163-165c-2-1-5-2-7-2-3 0-5 1-7 2l-164 165c-2 3-3 7-2 11 2 3 5 5 9 5z m-87-253c0-5 4-10 9-10l281 0c5 0 9 5 9 10l0 92c0 5 5 9 10 9l81 0c5 0 9-4 9-9l0-192c0-5-4-9-9-9l-481 0c-5 0-9 4-9 9l0 192c0 5 4 9 9 9l81 0c6 0 10-4 10-9z"/>
<glyph glyph-name="lego" unicode="&#73;" d="M446 372l0 31-43 0 0-31-30 0 0 31-44 0 0-31-30 0 0 31-44 0 0-31-30 0 0 31-44 0 0-31-30 0 0 31-43 0 0-31-32 0-74-91 0-172 506 0 0 263z"/>
<glyph glyph-name="loader-1" unicode="&#74;" d="M512 172l-39 38-31 0 0 148-142 0-64-66 0 153-43 0 0-128-19 0-22-22 0-133-152 0 0-29 176 0 0-17 46-49 225 0 43 46 22 0z"/>
<glyph glyph-name="paver" unicode="&#75;" d="M125 259c-7 8-11 17-10 27l0 189c0 19 16 36 36 36l208 0c19 0 36-17 36-36l0-189c0-9-3-17-10-24l80-108c3-3 3-8 0-11l-122-139c-3-4-9-6-12-1l-47 40c-2 1-3 4-3 6-1 2 0 5 2 6l80 92c2 3 3 8 0 11l-67 91-78 0-68-91c-3-3-3-8 0-11l78-92c1-2 2-4 2-7-1-2-2-4-4-6l-48-39c-1-1-4-3-6-3-2 0-4 1-6 4l-118 140c-2 4-3 8 0 11z"/>
<glyph glyph-name="picker" unicode="&#76;" d="M125 259c-7 8-11 17-10 27l0 189c0 19 16 36 36 36l208 0c19 0 36-17 36-36l0-189c0-9-3-17-10-24l80-108c3-3 3-8 0-11l-122-139c-3-4-9-6-12-1l-47 40c-2 1-3 4-3 6-1 2 0 5 2 6l80 92c2 3 3 8 0 11l-67 91-78 0-68-91c-3-3-3-8 0-11l78-92c1-2 2-4 2-7-1-2-2-4-4-6l-48-39c-1-1-4-3-6-3-2 0-4 1-6 4l-118 140c-2 4-3 8 0 11z"/>
<glyph glyph-name="platform" unicode="&#77;" d="M339 256c0-46-37-83-83-83-46 0-83 37-83 83 0 46 37 83 83 83 46 0 83-37 83-83z m-263 96c0-1-2-1-2-2l3-1 10-32 31 10 1 0c0 0 0 0 0 1l33 11-19 10c4 5 7 8 11 13 29 32 69 49 112 49 40 0 78-16 107-44 6-6 11-12 16-18l-21-10 66-22 11 33 1 0c0 0 0 1 0 1l10 31-22-11c-7 11-17 22-27 31-37 37-89 58-142 58-56 0-111-24-149-65-7-7-13-16-19-24l-22 11z m349-157l-65-22 20-10c-3-5-7-8-11-13-29-32-69-49-112-49-41 0-80 16-109 45-5 5-10 11-15 17l19 10-65 22-22-66 22 11c7-10 14-21 24-29 39-39 90-60 145-60 56 0 111 23 149 65 7 7 13 16 19 24l22-11z"/>
<glyph glyph-name="keyboard" unicode="&#80;" d="M293 404l0-54c0-5-5-10-10-10l-54 0c-5 0-10 5-10 10l0 54c0 5 5 10 10 10l54 0c5 0 10-5 10-10z m0-110l0-53c0-3-1-6-3-7-2-2-5-3-7-3l-54 0c-5 0-10 4-10 10l0 53c0 5 5 10 10 10l54 0c5 0 10-5 10-10z m-110 110l0-54c0-5-5-10-10-10l-53 0c-6 0-10 5-10 10l0 54c0 5 4 10 10 10l53 0c5 0 10-5 10-10z m0-110l0-53c0-3-1-6-3-7-2-2-4-3-7-3l-53 0c-6 0-10 4-10 10l0 53c0 5 4 10 10 10l53 0c5 0 10-5 10-10z m-183-53l0 53c0 5 4 10 10 10l53 0c6 0 10-5 10-10l0-53c0-6-4-10-10-10l-53 0c-6 0-10 4-10 10z m0 109l0 54c0 5 4 10 10 10l53 0c6 0 10-5 10-10l0-54c0-5-4-10-10-10l-53 0c-6 0-10 5-10 10z m110-235l0 53c0 6 4 10 10 10l272 0c6 0 10-4 10-10l0-53c0-6-4-10-10-10l-272 0c-6 0-10 4-10 10z m219 126l0 53c0 5 5 10 10 10l53 0c6 0 10-5 10-10l0-53c0-6-4-10-10-10l-53 0c-5 0-10 4-10 10z m0 109l0 54c0 5 5 10 10 10l53 0c6 0 10-5 10-10l0-54c0-5-4-10-10-10l-53 0c-5 0-10 5-10 10z m110-109l0 53c0 5 4 10 10 10l53 0c6 0 10-5 10-10l0-53c0-6-4-10-10-10l-53 0c-6 0-10 4-10 10z m0 109l0 54c0 5 4 10 10 10l53 0c6 0 10-5 10-10l0-54c0-5-4-10-10-10l-53 0c-6 0-10 5-10 10z"/>
<glyph glyph-name="move" unicode="&#81;" d="M309 14l0 249 161 0c4 0 7 3 8 6 1 3 1 7-2 9l-222 223c-3 3-9 3-12 0l-222-223c-2-2-3-6-2-9 2-3 5-6 9-6l160 0 0-249c0-5 4-9 9-9l104 0c5 0 9 4 9 9z"/>
<glyph glyph-name="loop" unicode="&#82;" d="M153 88l184 0c81 0 149 54 160 128 1 2 1 6 1 10 0 3 0 5-2 7-2 2-4 3-7 3l-61 0c-5 0-9-3-9-8-1-5-2-9-3-12-10-28-41-49-79-49l-184 0 0 69c0 3-2 6-6 8-3 1-7 1-9-1l-125-109c-2-2-4-4-4-7 0-2 2-5 4-7l125-108c2-3 6-3 10-2 3 2 5 5 5 9l0 69z m203 343l-185 0c-84 0-154-59-161-136 0-4 0-7 0-11 0-2 1-5 3-6 1-2 4-3 6-3l61 0c3 0 5 1 7 2 2 2 3 4 3 7-1 3 0 7 0 11 7 32 40 57 81 57l185 0 0-69c0-3 2-6 5-8 3-1 7-1 10 1l125 109c2 2 3 4 3 7 0 3-1 5-3 7l-125 108c-3 3-7 3-10 2-3-2-5-5-5-9l0-69z"/>
<glyph glyph-name="loader" unicode="&#83;" d="M129 265c-7 7-11 16-10 26l0 183c0 19 15 35 35 35l201 0c19 0 35-16 35-35l0-183c0-9-3-17-9-23l77-105c3-3 3-8 0-11l-118-135c-3-4-9-5-12-1l-45 39c-2 1-3 4-3 6-1 2 0 5 2 6l77 89c2 3 3 8 0 11l-65 88-75 0-66-88c-3-3-3-8 0-11l75-89c1-2 2-4 2-7-1-2-2-4-4-6l-46-38c-1-1-4-2-6-2-2 0-4 1-6 3l-114 136c-2 4-3 8 0 11l75 101z"/>
<glyph glyph-name="load" unicode="&#84;" d="M304 318l0-140c0-6-4-10-9-10l-85 0c-5 0-9 4-9 10l0 140-96 0c-4 0-7 2-9 5-1 4-1 8 2 11l144 157c1 2 4 3 7 3 2 0 5-1 7-3l143-157c3-3 3-7 2-11-2-3-5-5-9-5z m-204-207c0-5 4-10 9-10l281 0c5 0 9 5 9 10l0 92c0 5 5 9 10 9l81 0c5 0 9-4 9-9l0-192c0-5-4-9-9-9l-481 0c-5 0-9 4-9 9l0 192c0 5 4 9 9 9l81 0c6 0 10-4 10-9z"/>
<glyph glyph-name="left" unicode="&#85;" d="M224 419c9 1 19 1 28 1 116 0 210-94 210-209 0-116-94-210-210-210-106 0-194 78-208 181 0 0 0 1 0 2 0 2 0 5 2 7 2 1 4 3 7 3l77 0c4 0 7-3 8-8 0-1 1-2 1-3 11-46 49-80 95-88 47-7 93 15 118 55 24 41 22 92-6 130-28 38-76 55-122 44l0-83c0-5-3-9-7-11-4-2-9-1-12 3l-131 130c-2 2-3 5-3 8 0 3 1 5 3 8l131 130c3 3 8 4 12 2 4-2 7-6 7-10l0-82z"/>
<glyph glyph-name="block-height" unicode="&#86;" d="M256 513l-134-68 0-378 134-68 134 68 0 378z m-106-332l99-50 0-96-99 49z m99 183l0-96-99 49 0 96z m0-113l0-104-99 50 0 104z m14-120l99 50 0-97-99-49z m99 66l-99-50 0 104 99 50z m0 120l-99-49 0 96 99 49z m-106 75l-88 44 88 45 88-45z"/>
<glyph glyph-name="false" unicode="&#87;" d="M496 421l-108 0c-14 42-53 73-100 73l-147 0c-28 0-50-23-50-51 0-8 2-16 6-23-21-7-36-26-36-48 0-8 2-15 5-22-20-6-36-25-36-48 0-24 18-44 40-49-4-7-6-15-6-24 0-28 22-51 50-51l91 0-36-103c-6-18 2-38 19-46 15-7 33-4 44 9l142 163 122 0z"/>
<glyph glyph-name="is-fire" unicode="&#88;" d="M423 254c-6 14-13 28-21 39-8-23-32-37-57-43 11 39 19 102-18 169-20 32-51 67-101 89 16-116-61-152-100-199-31-33-51-77-51-126 0-100 81-181 181-181 100 0 181 81 181 181 0 26-4 51-14 71z m-167-203c-75 0-134 61-134 134 0 36 14 69 38 93 0 0 1 2 1 2 6 8 16 15 26 25 28 26 73 71 79 128 67-67 51-171 20-220 31-14 74-8 100 8 4-12 6-24 6-38-2-73-61-132-136-132z"/>
<glyph glyph-name="spray" unicode="&#89;" d="M13 177l167 0 0-35-167 0z m188 122l-34 0 0 26-26 26-90 0-26-26 0-92 23 0 0-31 97 0 0 31 22 0 0 28 34 0 0-8 123 16 0 23-123 15z m190-19c0-9-8-17-18-17-9 0-17 8-17 17 0 10 8 18 17 18 10 0 18-8 18-18z m108 0c0-9-7-17-17-17-10 0-18 8-18 17 0 10 8 18 18 18 10 0 17-8 17-18z m0-72c0-10-7-18-17-18-10 0-18 8-18 18 0 9 8 17 18 17 10 0 17-8 17-17z m0 145c0-10-7-18-17-18-10 0-18 8-18 18 0 9 8 17 18 17 10 0 17-8 17-17z m-54-37c0-9-8-17-17-17-10 0-18 8-18 17 0 10 8 18 18 18 9 0 17-8 17-18z m0-72c0-10-8-18-17-18-10 0-18 8-18 18 0 10 8 18 18 18 9 0 17-8 17-18z"/>
<glyph glyph-name="push" unicode="&#90;" d="M499 94l0-75-486 0 0 75 94 0 27 68 244 0 27-68z m-243 121l113 122-49 0 0 156-128 0 0-158-49 0z"/>
<glyph glyph-name="true" unicode="&#48;" d="M482 210c0 24-18 44-40 49 4 7 6 15 6 24 0 28-22 51-50 51l-91 0 36 103c6 18-2 38-19 46-15 7-33 4-44-9l-142-163-122 0 0-220 108 0c14-42 53-73 100-73l147 0c28 0 50 23 50 51 0 8-2 16-6 23 21 7 36 26 36 48 0 8-2 15-5 22 20 6 36 25 36 48z"/>
<glyph glyph-name="var" unicode="&#49;" d="M53 212c0-16 1-31 3-44 2-13 5-25 7-35 3-10 6-19 9-27 3-8 6-14 8-19l-27-17c-5 8-11 17-17 28-6 10-11 22-15 35-4 14-8 28-10 43-3 16-4 32-4 49 0 25 2 49 8 71 6 22 13 43 22 61 9 18 19 35 30 49 11 14 22 26 32 36l22-17c-5-7-11-16-19-29-7-12-15-27-22-45-7-18-14-39-19-62-5-23-8-49-8-77z m125-79c0 0-1 0-2 0-1 0-2 0-3 0-5 5-10 10-15 15-5 6-10 11-15 17 0 1 0 2 1 3 0 1 0 2 0 3 13 13 26 25 38 37 13 12 26 25 40 37-5 10-10 20-14 29-4 10-9 20-13 30l-33-9c-2 4-4 8-6 12-2 4-4 8-6 12 13 12 26 20 37 25 12 5 21 7 30 7 7 0 12-1 16-4 3-3 6-7 8-11 3-6 5-10 7-15 2-4 4-8 6-12 2-4 4-8 6-12 2-4 4-8 6-14 9 12 18 23 27 34 9 12 18 23 27 34l5 0 31-31c0-2 0-4 0-6l-71-68 28-62c6 1 12 3 17 5 5 2 10 5 16 8l19-23c-6-8-12-15-19-20-6-5-12-9-18-12-6-2-12-4-17-6-6-1-10-1-14-1-8 0-14 2-19 5-5 4-9 9-14 16-4 6-8 14-11 23-4 9-8 19-13 29-10-12-20-25-30-38-11-12-21-24-32-37z m281 168c0 16-1 31-3 44-2 13-4 25-7 35-3 10-6 19-9 27-3 7-6 14-8 18l26 17c6-8 12-18 18-28 5-11 10-23 15-36 4-13 8-27 10-42 3-15 4-30 4-47 0-26-3-50-9-73-6-23-13-43-23-62-9-18-19-35-30-49-11-14-21-26-31-35l-22 18c5 6 11 15 19 28 8 12 15 27 23 45 7 18 14 39 19 62 5 24 8 50 8 78z"/>
<glyph glyph-name="has-fur" unicode="&#52;" d="M319 219c-3-7-1-4-7-8-13-20-83-37-122 9-15 18-15 28-20 36-8-4-17-13-31-6-9 4-12 16-9 27 2 4 14 17 18 23 8 9 10 12 23 15-7 17-9 29 4 44 14 16 27 13 47 8 5 32 51 39 69 2 11-1 14 4 27 1 24-5 33-27 23-54 0 0 1 0 1 0l3-2c16-7 35-33 37-37 8-24-22-42-39-21-4-4-7-14-11-21-3-6-8-14-14-16z m-113 247c-7 2-12 11-26 13-14 3-26 1-37-5-20-12-27-29-24-58-30 3-48-5-59-26-19-33 6-56 9-62-15-8-14-3-27-17-17-19-15-48 0-67 9-10 15-9 27-16-27-35-17-70 14-84 17-7 20-3 36-4-8-26 9-56 36-63 15-4 20 1 32 0 0-12-2-50 2-60 7-14 31-12 34 7 1 9 0 22 0 31 1 13 6 3 16 0 21-7 33-1 50 7 1-17-7-64 25-53 17 7 11 49 11 69 24-2 35-5 53 10 14 12 18 30 16 52 47-3 69 26 64 59-3 17-8 17-14 29 7 4 38 11 38 50 0 36-27 44-38 50 2 6 26 30 8 63-12 22-30 26-59 25 12 53-47 86-86 50-6 7-7 17-17 26-19 16-48 17-67 1-12-11-10-13-17-27z"/>
<glyph glyph-name="has-tail" unicode="&#53;" d="M155 92c-23 0-39 8-52 20-13 11-20 25-25 45-2-2-2-2-3-7-1-2-2-5-2-7-6-28 17-73 33-87 14-11 29-19 48-26 100-40 200 4 249 94 36 65 26 152-26 206-10 11-13 11-23 24-20 23-37 55-33 87 2 10 7 15 6 18-17 5-25-17-26-19-7 9-4 31 3 42 5 7 8 9 15 15-5 1-50-24-57-28-35-21-69-49-87-87-9-20-14-48-6-73 7-23 19-39 30-57 10-17 21-39 24-61 6-30 7-48-10-70-5-6-16-15-24-20-10-5-22-9-34-9z"/>
<glyph glyph-name="is-hungry" unicode="&#54;" d="M489 478c-70-30-132-76-183-133l39 0c45 46 99 83 159 108 17 7 2 32-15 25z m-195-148l-294 0c0-140 114-254 254-254 141 0 255 114 255 254z m-294-283l509 0 0-43-509 0z m174 353c0 1 0 2 0 2 0 1 1 1 1 2 0 0 0 1 1 1 0 1 1 1 1 2 0 0 1 1 1 1 1 0 1 1 1 1 1 1 2 2 3 2 1 1 2 2 3 3 1 0 2 1 2 2 1 0 1 0 2 1l1 1c1 0 2 1 3 2l2 1 4 3c4 4 9 9 12 15 4 6 7 12 8 19 1 6 1 12-1 18-1 5-3 10-5 14-5 8-10 12-15 15-2 1-4 2-5 3-1 0-2 1-2 1 0 0 0-1 0-3 0-1 0-3 0-5 0-5-1-11-2-17-1-3-2-6-3-8-1-3-2-5-4-7-1-2-3-4-5-6-2-2-4-4-6-6l-2-1 0-1-1 0-1-1 0 0 0 0-1-1c-1-1-2-2-3-3l-1-1c-1 0-1-1-2-1-2-3-4-6-6-8-2-3-4-6-5-9-1-2-1-3-2-5 0-1-1-3-1-5-1-1-1-3-1-5 0 0 0-1 0-2 0-1 0-2 0-2 0-3 0-7 1-9 1-2 1-3 1-4 1-1 1-3 2-4 1-2 3-4 4-6 1-1 3-3 4-4 2-1 3-2 4-3 2-1 3-2 4-2 2-1 4-2 6-2 1-1 2-1 2-1 0 0 0 1-1 2 0 2 0 4 0 6 0 1 0 2 0 4 0 1 0 2 0 3 0 3 1 6 2 8z m82 0c0 1 0 2 1 2 0 1 0 1 0 2 1 0 1 1 1 1 1 1 1 1 1 2 1 0 1 1 1 1 1 0 1 1 2 1 0 1 1 2 2 2 1 1 2 2 3 3 1 0 2 1 3 2 0 0 1 0 1 1l1 1c1 0 2 1 3 2l2 1 4 3c5 4 9 9 13 15 3 6 6 12 7 19 1 6 1 12 0 18-1 5-3 10-6 14-4 8-10 12-14 15-2 1-4 2-5 3-2 0-2 1-2 1 0 0-1-1-1-3 0-1 0-3 0-5 0-5-1-11-2-17-1-3-1-6-3-8-1-3-2-5-3-7-2-2-3-4-5-6-2-2-4-4-7-6l-2-1 0-1 0 0-1-1 0 0-1 0-1-1c-1-1-2-2-3-3l-1-1c0 0-1-1-1-1-3-3-5-6-7-8-2-3-3-6-5-9-1-2-1-3-2-5 0-1-1-3-1-5 0-1 0-3-1-5 0 0 0-1 0-2 0-1 0-2 0-2 0-3 1-7 2-9 0-2 0-3 1-4 0-1 1-3 1-4 2-2 3-4 4-6 2-1 3-3 4-4 2-1 3-2 5-3 1-1 2-2 3-2 3-1 5-2 6-2 1-1 2-1 2-1 0 0 0 1 0 2 0 2-1 4-1 6 0 1 0 2 0 4 0 1 0 2 0 3 1 3 1 6 2 8z"/>
<glyph glyph-name="is-baby" unicode="&#55;" d="M454 218c0 33-27 61-61 61-13 0-26-5-36-12-8 7-16 13-25 19 20 20 33 48 33 78 0 11-2 20-4 30 28 4 50 29 50 58 0 33-27 60-60 60-28 0-51-19-58-45-12 5-24 7-38 7-12 0-25-2-36-6-7 25-30 44-57 44-33 0-60-27-60-60 0-28 20-52 48-58-3-9-5-19-5-30 0-31 13-59 34-79-8-5-16-12-23-19-11 8-23 13-37 13-34 0-61-27-61-61 0-32 25-59 56-61 1-6 2-13 3-19-29-20-33-64-9-100 24-36 67-49 97-29 7 5 13 11 17 19 11-3 23-5 34-5 12 0 24 2 34 5 5-8 10-14 18-19 29-20 73-7 97 29 24 36 19 80-9 100 1 7 2 13 2 19 32 3 56 29 56 61z m-188-117l-2 0c-58 24-80 81-55 105 26 24 55-5 55-5l0 0c0 0 30 29 55 5 26-24 5-81-53-105z"/>
<glyph glyph-name="is-predator" unicode="&#56;" d="M241 391c0-1 1-1 2-1l-1-1c-2 0-3 0-4 0-26 0-52-2-77-7-27-3-54-10-79-20 5-4 10-3 14-7-1 0-2-1-3-2-18-8-34-19-48-32-19-19-30-43-32-69 0-3 0-6 0-9 0-13 2-25 5-37 4-15 10-28 16-41 13-24 28-46 46-65 1-1 2-2 4-2 1 0 1 0 2 1-2-4 1-4 3-4l-1-2c2-4 4-4 7-2l0-1-2-3c0 0 1-1 1-1 16-16 34-30 53-42 3-1 4-1 5 1 17 22 35 42 55 61 12 13 27 24 43 32 6 4 12 5 19 5 4 0 8-1 13-2 15-7 22-17 21-35-1-8-2-17-2-26l-8 2c0-1 1-2 2-4 6-5 13-9 22-10 8-2 17-4 26-5 2 0 4-2 4-3 0 0 0 0-1 0 0-4 1-8 1-11 0-2 1-3 3-2l2 1c6 3 11 8 15 14 9 12 17 24 24 38 2 3 4 7 5 11 2 10 3 20 5 30 0 2 0 4 0 6l-1-1c-9-7-17-15-25-22-2-1-2-1-4 0-6 4-13 8-20 13l-21 14 1-3-1-2c0 1-1 2-2 3-1 3-4 5-6 7-6 3-11 7-17 11-1 0-2 1-2 2 0 1 0 1 1 1 1 6 3 11 6 15 10 12 23 21 37 26 9 3 19 6 29 7 4 0 8 0 12 0 7 0 14 0 20-2 7-1 14-4 19-8 1-1 2-2 2-3 0 0 0 0 0 0-3-10-8-18-14-25-1-1-2-2-2-4l0 0c6 1 11 1 18 2 9 2 18 5 26 11 12 7 20 19 24 32 1 1 2 2 3 3 4 3 8 6 11 9 2 3 4 6 4 9 0 0 0 0 0 0 0 6-3 10-8 13-3 1-6 2-9 4-16 13-33 24-52 32-1 1-2 2-2 3 0 0 0 0 0 0 0 8-2 16-5 23-7 15-18 27-32 36-2 1-5 1-6 4-8 4-15 8-23 11-11 4-23 8-34 11-2 0-3 2-3 4-2 11-5 23-9 34-1 3-3 6-5 8l-4-13-1 2c-6 8-11 16-18 23-9 12-21 22-34 30-2 1-4 2-7 2-2 0-5-1-7-2-12-9-20-23-20-38 0-3 0-6 1-9 3-12 10-23 20-29z m135-91l-15-2c0 0 0 0 0 0 0 0-1 0-1 0-1 0-2 0-3 0-3 0-6 1-9 4-4 3-8 7-11 12-1 2-2 4-2 6 15-3 29-9 41-19z"/>
<glyph glyph-name="ring" unicode="&#57;" d="M257 510c38 0 74-9 106-24l-50-88c-17 8-36 12-56 12-19 0-38-4-55-12l-50 88c32 15 68 24 105 24z m137-42c60-41 100-107 106-183l-101 0c-5 39-25 73-55 96z m106-219c-6-76-46-143-106-183l-50 87c30 23 50 57 55 96z m-137-201c-32-16-68-24-106-24-37 0-73 8-105 24l50 87c17-7 36-11 55-11 20 0 39 4 56 11z m-242 18c-60 40-101 107-106 183l101 0c5-39 25-73 55-96z m-106 219c5 76 46 142 106 183l50-87c-30-23-50-57-55-96z"/>
<glyph glyph-name="color" unicode="&#33;" d="M312 411c-9 9-17 17-26 25-20 18-50 16-68-3-18-18-19-48-1-68 4-4 9-8 14-13-2-2-4-3-5-4l-140-140c-19-17-29-43-26-68 0-3-1-5-3-7-11-11-22-23-34-34-12-10-20-24-23-39l0-10c1-9 5-17 9-24 9-12 22-19 37-20 14-2 29 4 39 14 13 12 25 25 37 37 5 6 11 11 19 8 1 0 2 0 2 0 23 0 44 10 60 26 46 47 93 93 140 140 1 2 2 4 3 6 4-4 7-8 11-11 5-5 11-9 16-12 23-10 49-3 62 18 14 20 10 47-8 64z m9-155c-18-18-36-36-54-54-1-2-4-3-6-3-44 0-88 0-133 0 0 0-1 0-3 0l130 128 68-68c-1-1-2-2-2-3z m136 249c-8 3-16 5-24 7l-17 0c-1-1-2-1-3-1-16-2-32-9-44-21-13-12-25-24-37-37-3-2-5-4-7-6l116-117c15 15 30 28 44 44 19 19 26 47 21 73-6 26-24 48-49 58z"/>
<glyph glyph-name="flashlight" unicode="&#51;" d="M435 418c5 0 9 2 12 5l20 20c7 7 7 18 0 24-6 7-17 7-24 0l-20-20c-6-6-6-17 0-24 4-3 8-5 12-5z m-75 54c0-9 8-16 17-16 0 0 0 0 1 0 9 1 16 9 16 18l-1 22c-1 9-9 17-18 16-10-1-17-9-16-18z m136-79l-22 1c-9 0-17-7-18-16 0-10 7-18 16-18l22-1c0-1 1-1 1-1 9 0 16 8 17 17 0 9-7 17-16 18z m-407-388l209 209c6 6 6 16 0 22l-62 62c-6 6-16 6-22 0l-18-18-8 8c-3 3-7 5-12 5-4 0-9-2-12-5l-40-40c-6-7-6-18 0-24l8-8-127-127c-7-7-7-18 0-24l60-60c3-3 7-5 12-5 4 0 8 2 12 5z m155 337c-2-8 2-20 8-26l64-64c6-6 18-10 26-8l59 12c8 1 10 8 4 14l-135 135c-6 6-13 4-14-4z m223-39c3 4 5 8 5 13 0 4-2 8-5 12l-139 139c-7 7-18 7-25 0l-19-20c-6-6-6-16 0-22l141-141c6-6 16-6 22 0z"/>
<glyph glyph-name="firetruck" unicode="&#102;" d="M65 244c0 21 15 36 36 36 18 0 36-17 36-36l34 0 0 68 54 55 51 0 0 17 16 0 0 31-16 0 0 20-23 0 0-5-98 10 0 17 98 12 0-5 23 0 0 17 19 21 74 0 18-21 0-66-15 0 0-31 15 0 0-19 52 0 54-54 0-243-36-17c-6-25-29-42-56-42-26 0-48 17-55 39l-6 0c-9-22-29-39-55-39-26 0-48 17-55 39l-73 0c-9-22-31-38-55-38-29 0-53 21-58 48l-24 12 0 130z"/>
<glyph glyph-name="color-1" unicode="&#34;" d="M136 197c0-19 21-41 45-46 13-3 22-5 27-5 2 0 9 0 12 6 3 5-1 11-5 18-5 7-10 17-10 27 0 19-16 35-35 35-19 0-34-16-34-35z m171 70c20 0 36 22 36 50 0 27-16 49-36 49-21 0-37-22-37-49 0-28 16-50 37-50z m-29-13c0 22-12 39-29 39-16 0-29-17-29-39 0-21 13-38 29-38 17 0 29 17 29 38z m167 39c-16 0-29-17-29-39 0-21 13-38 29-38 16 0 29 17 29 38 0 22-13 39-29 39z m-60-26c20 0 36 22 36 50 0 27-16 49-36 49-21 0-37-22-37-49 0-28 16-50 37-50z m30-48c0 2-1 3-1 3-9 18-31 39-68 39l-1 0c-36 0-58-20-67-38 0 0-1-1-2-2-1-1-2-2-2-3-8-12-12-25-11-38 1-13 6-23 15-29 4-3 8-4 12-4 9 0 17 5 26 11 6 3 12 7 19 10 1 0 4 0 9 0 6 0 10 0 11 0 7-3 13-7 18-11 9-5 17-11 26-11 4 0 8 1 11 3 19 11 23 41 8 66-1 2-2 3-3 4z m-291-3l0 0c2 0 4 1 5 3 7 12 18 21 31 24 2 0 4 2 5 4 0 2 0 4-2 6l-94 107c-6 7-19 8-26 1-6-6-7-16-2-23l77-119c1-2 3-3 5-3z"/>
<glyph glyph-name="color-2" unicode="&#35;" d="M271 119c0-45 50-97 106-109 31-7 50-10 63-10 5 0 21 0 27 12 7 13-1 26-11 43-11 18-24 40-24 64 0 44-36 80-80 80-45 0-81-36-81-80z m-28 43l0 0c5 0 10 3 12 7 16 29 42 49 73 56 5 1 9 5 10 10 2 5 1 10-3 14l-219 249c-16 18-45 19-62 2-14-13-16-36-5-52l181-279c2-4 7-7 12-7z"/>
<glyph glyph-name="submarine" unicode="&#36;" d="M389 309l-106 0c-21 0-41-6-59-15l0 0-100-54-9 27c-5 15-18 24-33 24l-54 0c-6 0-10-6-8-11l25-77 97 0 0-17-124 0c-10 0-18-8-18-18 0-10 8-18 18-18l21 0-19-58c-2-6 2-12 8-12l54 0c15 0 28 10 33 24l9 28 100-55 0 0c18-9 38-15 59-15l106 0c68 0 123 56 123 124 0 67-55 123-123 123z m-145-150c-15 0-27 12-27 27 0 14 12 26 27 26 14 0 26-12 26-26 0-15-12-27-26-27z m92 0c-15 0-26 12-26 27 0 14 11 26 26 26 15 0 26-12 26-26 0-15-11-27-26-27z m92 0c-14 0-26 12-26 27 0 14 12 26 26 26 15 0 27-12 27-26 0-15-12-27-27-27z m-22 291c-9 0-17-8-17-18l-18 0c-29 0-53-24-53-53l0-17-35 0 0-36 106 0 0 36-35 0 0 17c0 10 8 18 17 18l18 0c0-10 8-18 17-18l18 0 0 71z"/>
<glyph glyph-name="faq" unicode="&#37;" d="M197 153c-48 25-73 80-60 133 13 53 61 90 115 90 55 0 102-37 115-90 13-53-12-108-60-133l0-47c0-21-18-39-40-39l-30 0c-22 0-40 18-40 39z m59 337c14 0 26-11 26-25l0-14c-1-14-12-25-26-25-14 0-25 11-25 25l0 14c0 14 11 25 25 25z m147-69c10-10 10-26 0-36l-10-9c-10-10-25-10-35 0-10 10-10 26-1 36l10 9c10 10 26 10 36 0z m-294 0c10 10 26 10 36 0l10-9c9-10 9-26-1-36-10-10-25-10-35 0l-10 9c-10 10-10 26 0 36z"/>
<glyph glyph-name="classroom" unicode="&#38;" d="M370 186l95 0 0 233-418 0 0-233 95 0c11 53 58 93 114 93 56 0 103-40 114-93z m-44-23c0-39-31-70-70-70-39 0-70 31-70 70 0 38 31 70 70 70 39 0 70-32 70-70z"/>
<glyph glyph-name="logout" unicode="&#39;" d="M331 36l-273 0c-6 0-11 5-11 12l0 429c0 7 5 12 11 12l273 0c6 0 12-5 12-12l0-46c0-7-6-12-12-12l-202 0c-6 0-11-5-11-12l0-290c0-6 5-11 11-11l202 0c6 0 12-6 12-12l0-46c0-7-6-12-12-12z m9 119l0 66-160 0c-6 0-12 6-12 12l0 59c0 6 6 11 12 11l160 0 0 70c0 4 3 9 8 10 4 2 9 1 12-2l97-102c4-5 5-11 1-16l-97-115c-3-4-9-6-13-4-5 2-8 6-8 11z"/>
<glyph glyph-name="study" unicode="&#40;" d="M26 303l230 115 230-115-230-116z m59-81l171-85 171 85 0-71c0-8-5-16-13-20l-148-74c-6-3-14-3-20 0l-148 74c-8 4-13 12-13 20z"/>
<glyph glyph-name="menu-search" unicode="&#42;" d="M188 99l-47-47c-18-17-46-17-63 0-17 17-17 46 0 63l48 48c-52 89-29 202 53 264 82 62 197 52 268-23 70-75 73-190 7-269-67-78-181-94-267-36z m112 58c60 0 109 49 109 109 0 60-49 109-109 109-60 0-109-49-109-109 0-60 49-109 109-109z"/>
<glyph glyph-name="menu-game" unicode="&#41;" d="M156 445l178 0 0-356-178 0z m-89-89l356 0 0-178-356 0z"/>
<glyph glyph-name="menu-guard" unicode="&#43;" d="M70 447c22-38 46-58 73-58 40 0 80 76 113 76 39 0 76-76 114-76 26 0 50 20 72 58 1-131-10-221-33-270-22-49-74-93-153-130-78 40-129 83-151 130-23 46-34 136-35 270z"/>
<glyph glyph-name="menu-cross" unicode="&#44;" d="M349 372l0 93-186 0 0-93-93 0 0-186 93 0 0-93 186 0 0 93 93 0 0 186z"/>
<glyph glyph-name="menu-cards" unicode="&#45;" d="M122 445l201 0c24 0 44-20 44-44l0-312c0-25-20-44-44-44l-201 0c-24 0-44 19-44 44l0 312c0 24 20 44 44 44z m67 22c0 25 20 45 45 45l156 0c24 0 44-20 44-45l0-267c0-24-20-44-44-44l0 245c0 37-30 66-67 66z"/>
<glyph glyph-name="add-user" unicode="&#46;" d="M390 122l30 0c8 0 15-7 15-15 0-9-7-15-15-15l-30 0 0-30c0-8-6-15-15-15-8 0-14 7-14 15l0 30-30 0c-9 0-15 6-15 15 0 8 6 15 15 15l30 0 0 29c0 9 6 15 14 15 9 0 15-6 15-15z m-102-30l-141 0c-3 0-6 0-9 1-15 5-23 21-18 36l9 26c6 24 26 42 51 45l22 3 6 19c-18 12-31 31-36 54-6 3-17 11-17 32 0 15 3 24 8 29 4 4 8 4 11 5-1 20 2 45 5 55-6 19 1 37 1 37 0 0 13 2 27-5 0 4-5 16-5 19 75 34 138-38 139-61 0-12-2-30-5-45 3-1 7-2 10-5 5-5 8-14 8-29 0-21-10-29-16-32-6-23-19-42-37-54l7-19 22-3c9-1 17-4 25-9-15-7-24-22-24-40-25 0-45-20-45-44 0-6 1-11 2-15z"/>
<glyph glyph-name="print" unicode="&#47;" d="M166 434l180 0c8 0 15-6 15-14l0-30-210 0 0 30c0 8 7 14 15 14z m0-238l180 0 0-120-180 0z m209-45l0 60c0 8-6 14-14 14l-210 0c-8 0-14-6-14-14l0-60-46 0c-8 0-14 6-14 14l0 181c0 7 6 14 14 14l330 0c8 0 14-7 14-14l0-181c0-8-6-14-14-14z m0 179l0-30 30 0 0 30z"/>
<glyph glyph-name="tablet-book" unicode="&#50;" d="M52 140l137 0 37-5c3-1 4-2 7-3 7-2 4-1 11-5 0 65 0 131 0 196 0 41 7 74-31 103-12 10-29 16-47 16l-114 0 0-302z m216 227l1-234 18 8 113 5c6 0 9-1 16-1l44 1 0 296-114 0c-16 0-31-5-43-13-4-3-8-6-11-8-12-11-24-32-24-54z m215-233c0-5-3-9-7-10-6-2-112-1-121-1-27 0-69 0-82-23-5-9-5-17-5-30 4 2 6 4 10 6 31 16 67 15 103 15l117 0c5 0 14-2 14 3l0 295-29 0 0-255z m-483-42c41 0 153 1 189-3 12-1 20-4 31-7l13-5c4-2 7-5 11-7 0 12 0 21-5 29-16 24-52 23-82 23-10 0-112-1-120 1-4 1-8 5-8 10l0 256-29 0z"/>
<glyph glyph-name="play" unicode="&#78;" d="M451 251l-384-244c-2-1-4-2-6 0-2 1-3 2-3 5l0 488c0 3 1 5 3 6 2 1 4 1 6-1l384-244c2-1 3-3 3-5 0-2-1-4-3-5z"/>
<glyph glyph-name="pause" unicode="&#79;" d="M184 512l-184 0 0-512 184 0z m144 0l184 0 0-512-184 0z"/>
<glyph glyph-name="operator" unicode="&#58;" d="M295 458l76-60c11-8 13-24 5-34l-256-327c-4-5-9-8-16-9-6-1-13 1-18 5l-77 60c-10 8-12 24-4 34l255 327c4 5 10 8 17 9 6 1 12-1 18-5z m110-429c-54 0-98 44-98 98 0 54 44 97 98 97 53 0 97-43 97-97 0-54-44-98-97-98z"/>
<glyph glyph-name="movement" unicode="&#59;" d="M270 493l223-223c7-8 7-20 0-28l-223-223c-8-7-20-7-28 0l-223 223c-7 8-7 20 0 28l223 223c8 7 20 7 28 0z m-112-119c-11 0-20-9-20-20l0-196c0-11 9-20 20-20l196 0c11 0 20 9 20 20l0 196c0 11-9 20-20 20z"/>
<glyph glyph-name="undo" unicode="&#60;" d="M106 290l-62 65c-3 3-8 4-12 2-4-1-7-5-7-9l-9-202c0-3 1-5 3-8 2-2 5-3 8-3l202 2c4 0 8 3 9 7 2 4 1 8-2 11l-66 68c27 41 76 62 124 55 54-9 96-51 105-105l0-4c2-10 11-18 21-18l49 0c7 0 13 3 17 8 4 4 6 11 5 17l-2 11 0 0c-11 69-54 128-116 160-93 47-204 21-267-57z"/>
<glyph glyph-name="settings" unicode="&#61;" d="M376 101c-14-11-29-19-46-26l0-54c0-11-9-21-21-21l-106 0c-12 0-21 10-21 21l0 54c-17 7-32 15-46 26l-46-27c-10-6-23-2-29 8l-53 92c-6 10-3 23 8 29l43 25c-3 19-3 37 0 56l-43 25c-11 6-14 19-8 29l53 92c6 10 19 13 29 8l46-27c14 11 29 19 46 26l0 54c0 11 9 21 21 21l106 0c12 0 21-10 21-21l0-54c17-7 32-15 46-26l46 27c10 5 23 2 29-8l53-92c6-10 3-23-8-29l-43-25c3-19 3-37 0-56l43-25c11-6 14-19 8-29l-53-92c-6-10-19-13-29-8l-46 27z m-120 63c52 0 94 41 94 92 0 51-42 92-94 92-52 0-94-41-94-92 0-51 42-92 94-92z"/>
<glyph glyph-name="eye" unicode="&#62;" d="M257 92c-64 0-148 50-251 149-4 4-6 9-6 15 0 6 2 11 6 15 103 99 187 149 251 149 65 0 149-50 252-149 4-4 6-9 6-15 0-6-2-11-6-15-103-99-187-149-252-149z m4 71c54 0 98 44 98 98 0 54-44 97-98 97-53 0-97-43-97-97 0-54 44-98 97-98z"/>
<glyph glyph-name="controls" unicode="&#63;" d="M92 251l0 105c0 11 9 20 20 20l56 0c0 2 2 4 3 5l76 76c8 8 20 8 28 0l75-76c2-1 3-3 4-5l56 0c11 0 20-9 20-20l0-115 41 0c11 0 20-9 20-20l0-121c0-11-9-20-20-20l-121 0c-11 0-20 9-20 20l0 121c0 11 9 20 20 20l41 0 0 76c0 11-9 19-20 19l-38 0-58-58c-8-8-20-8-28 0l-58 58-38 0c-11 0-20-8-20-19l0-66c46-11 77-54 72-100-5-47-45-82-91-82-47 0-87 35-92 82-5 47 26 90 72 100z"/>
<glyph glyph-name="bolt" unicode="&#64;" d="M282 469l0-156 141 0c8 0 15-4 18-10 4-7 4-15 0-22l-151-257c-5-8-15-12-24-10-10 3-16 11-16 21l0 165-143 0c-8 0-15 4-19 11-4 6-4 15 1 21l154 249c5 8 15 11 24 9 9-3 16-11 16-21z"/>
<glyph glyph-name="pressed" unicode="&#91;" d="M293 268c-11 0-20 10-20 21l0 203c0 8 5 15 12 18 8 4 17 2 23-4l202-203c6-6 8-14 5-22-3-8-11-13-19-13l-203 0z m-70-26c11 0 21-9 21-21l0-202c0-9-5-16-13-19-8-3-16-2-22 4l-203 203c-6 6-8 15-4 22 3 8 10 13 18 13z"/>
<glyph glyph-name="expand" unicode="&#93;" d="M512 480l0-317c0-13-8-24-20-29-12-5-25-2-35 7l-316 316c-9 10-12 23-7 35 5 12 16 20 29 20l317 0c18 0 32-14 32-32z m-512-448l0 317c0 13 8 24 20 29 12 5 25 2 35-7l316-316c9-10 12-23 7-35-5-12-16-20-29-20l-317 0c-18 0-32 14-32 32z"/>
<glyph glyph-name="bubbles" unicode="&#94;" d="M371 230c-78 0-141 63-141 141 0 78 63 141 141 141 78 0 141-63 141-141 0-78-63-141-141-141z m0 252c-62 0-111-50-111-111 0-62 49-112 111-112 61 0 111 50 111 112 0 61-50 111-111 111z m-264-402c-59 0-107 48-107 106 0 59 48 107 107 107 58 0 106-48 106-107 0-58-48-106-106-106z m0 183c-43 0-77-34-77-77 0-42 34-76 77-76 42 0 76 34 76 76 0 43-34 77-76 77z m226-263c-41 0-75 34-75 75 0 42 34 76 75 76 42 0 76-34 76-76 0-41-34-75-76-75z m0 121c-25 0-45-20-45-45 0-26 20-46 45-46 26 0 46 20 46 46 0 25-20 45-46 45z"/>
<glyph glyph-name="dab" unicode="&#95;" d="M337 269l-26 24 0 25 26 23 49-18 0 21-49 23-46-17 0-10-39-13 0-6 6 0 0-39-6 0 0-5 39-7 0-9 46-18 49 23 0 21z m-79 52l-258 0 0-39 258 0z m188-225l-26 23 0 25 26 23 50-18 0 22-49 23-46-18 0-10-39-12 0-7 6 0 0-39-6 0 0-5 39-6 0-10 45-18 50 23 0 21z m-78 51l-257 0 0-39 257 0z m-368 37l241 0c6 0 11-5 11-11l0-173c0 0 0 0-6 0l-246 0z m144-12l-44 0c-6 0-12 6-12 12l0 9c0 7 6 12 12 12l44 0c7 0 12-5 12-12l0-9c0-6-5-12-12-12z m81 162l0 17c0 15-12 27-27 27l-64 0 0 19c12 6 19 19 16 32-3 13-15 23-28 23-14 0-25-10-28-23-3-13 3-26 15-32l0-19-63 0c-15 0-27-12-27-27l0-17z m-206-65l0-46c0-15 12-26 27-26l152 0c15 0 26 11 26 26l0 46z m151-36l-96 0 0 19 96 0z"/>
<glyph glyph-name="smile" unicode="&#123;" d="M477 281l-15 0 0 29c0 29-24 53-53 53l-128 0 0 38c24 12 37 40 31 66-6 26-29 45-56 45-28 0-51-19-57-45-6-26 7-53 31-66l0-38-127 0c-30 0-53-24-53-53l0-29-16 0c-9 0-17-8-17-18l0-97c0-9 8-18 17-18l16 0 0-95c0-30 23-53 53-53l306 0c29 0 53 23 53 53l0 95 15 0c10 0 19 8 19 18l0 97c-1 10-9 18-19 18z m-342-62c-5-11-21-1-16 10 21 42 81 42 102 0 5-11-11-21-16-10-15 31-55 31-70 0z m122-164c-53 0-96 42-96 95l191 0c0-53-43-95-95-95z m121 164c-14 31-54 31-69 0-5-11-21-1-16 10 20 42 81 42 101 0 6-11-10-21-16-10z"/>
<glyph glyph-name="ico-right" unicode="&#117;" d="M282 419c-9 1-19 1-28 1-116 0-210-94-210-209 0-116 94-210 210-210 106 0 194 78 208 181 0 0 0 1 0 2 0 2 0 5-2 7-2 1-4 3-7 3l-77 0c-4 0-7-3-8-8 0-1-1-2-1-3-11-46-49-80-95-88-47-7-93 15-118 55-24 41-22 92 6 130 28 38 76 55 122 44l0-83c0-5 3-9 7-11 4-2 9-1 12 3l131 130c2 2 3 5 3 8 0 3-1 5-3 8l-131 130c-3 3-8 4-12 2-4-2-7-6-7-10l0-82z"/>
<glyph glyph-name="ico-promocode" unicode="&#96;" d="M51 282l-25 0c-15 0-26 11-26 25l0 26c0 14 11 25 26 25l460 0c15 0 26-11 26-25l0-26c0-14-11-25-26-25l-25 0 0-256c0-15-12-26-26-26l-358 0c-14 0-26 11-26 26z m205 76c-4 67-21 112-50 134-45 34-133 30-129-52 2-54 62-82 179-82z m0 0c3 56 18 93 43 112 38 28 114 25 110-43-2-46-53-69-153-69z"/>
<glyph glyph-name="ico-eraser" unicode="&#110;" d="M362 466l104-103c4-4 6-10 6-15 0-6-2-12-6-16l-177-175-142 140 185 170c8 8 21 8 30-1z m-241-190l142-139-46-46c-17-16-44-16-61 0l-80 79c-8 9-13 20-13 31 0 12 5 23 13 31l45 44z m-71-222l286 0c6 0 11-5 11-11l0-12c0-6-5-11-11-11l-286 0c-6 0-11 5-11 11l0 12c0 6 5 11 11 11z"/>
</font>
</defs>
</svg>
