<svg width="15" height="15" viewBox="0 0 15 15" fill="none" xmlns="http://www.w3.org/2000/svg">
<path d="M13.7552 9.28711C13.9644 9.05361 14.0918 8.74541 14.0918 8.4082C14.0918 7.68135 13.5003 7.08984 12.7734 7.08984H10.2146C10.4681 6.3208 10.5762 5.30039 10.5762 4.86299V4.42383C10.5762 3.45469 9.7875 2.66602 8.81836 2.66602H8.37891C8.17734 2.66602 8.00156 2.80313 7.95264 2.99883L7.71328 3.95654C7.37783 5.29775 6.31289 6.77754 5.21074 7.04648C5.01768 6.55781 4.54102 6.21094 3.98438 6.21094H1.34766C1.10508 6.21094 0.908203 6.40781 0.908203 6.65039V14.5605C0.908203 14.8031 1.10508 15 1.34766 15H3.98438C4.5085 15 4.96201 14.6927 5.17441 14.2485L6.68438 14.7519C7.17803 14.9165 7.69248 15 8.21309 15H11.8945C12.6214 15 13.2129 14.4085 13.2129 13.6816C13.2129 13.5103 13.1801 13.3462 13.1203 13.1959C13.6793 13.0433 14.0918 12.5309 14.0918 11.9238C14.0918 11.5866 13.9644 11.2784 13.7552 11.0449C13.9644 10.8114 14.0918 10.5032 14.0918 10.166C14.0918 9.82881 13.9644 9.52061 13.7552 9.28711ZM4.42383 13.6816C4.42383 13.9239 4.22666 14.1211 3.98438 14.1211H1.78711V7.08984H3.98438C4.22666 7.08984 4.42383 7.28701 4.42383 7.5293V13.6816ZM11.8945 9.72656H12.7734C13.0157 9.72656 13.2129 9.92373 13.2129 10.166C13.2129 10.4083 13.0157 10.6055 12.7734 10.6055H11.8945C11.652 10.6055 11.4551 10.8023 11.4551 11.0449C11.4551 11.2875 11.652 11.4844 11.8945 11.4844H12.7734C13.0157 11.4844 13.2129 11.6815 13.2129 11.9238C13.2129 12.1661 13.0157 12.3633 12.7734 12.3633H11.8945C11.652 12.3633 11.4551 12.5602 11.4551 12.8027C11.4551 13.0453 11.652 13.2422 11.8945 13.2422C12.1368 13.2422 12.334 13.4394 12.334 13.6816C12.334 13.9239 12.1368 14.1211 11.8945 14.1211H8.21309C7.78711 14.1211 7.36611 14.0528 6.96211 13.9181L5.30273 13.3649V7.92715C5.99209 7.79619 6.6668 7.35967 7.27588 6.64512C7.87061 5.94727 8.35283 5.02207 8.56582 4.16982L8.72197 3.54492H8.81836C9.30293 3.54492 9.69727 3.93926 9.69727 4.42383V4.86299C9.69727 5.45303 9.5127 6.58477 9.27656 7.08984H8.37891C8.13633 7.08984 7.93945 7.28672 7.93945 7.5293C7.93945 7.77187 8.13633 7.96875 8.37891 7.96875H12.7734C13.0157 7.96875 13.2129 8.16592 13.2129 8.4082C13.2129 8.65049 13.0157 8.84766 12.7734 8.84766H11.8945C11.652 8.84766 11.4551 9.04453 11.4551 9.28711C11.4551 9.52969 11.652 9.72656 11.8945 9.72656Z" fill="white"/>
<path d="M3.10547 13.2422C3.34817 13.2422 3.54492 13.0454 3.54492 12.8027C3.54492 12.56 3.34817 12.3633 3.10547 12.3633C2.86277 12.3633 2.66602 12.56 2.66602 12.8027C2.66602 13.0454 2.86277 13.2422 3.10547 13.2422Z" fill="white"/>
<path d="M9.25781 0C9.01512 0 8.81836 0.196758 8.81836 0.439453V1.34766C8.81836 1.59035 9.01512 1.78711 9.25781 1.78711C9.50051 1.78711 9.69727 1.59035 9.69727 1.34766V0.439453C9.69727 0.196758 9.50051 0 9.25781 0Z" fill="white"/>
<path d="M7.3934 1.93793L6.77192 1.31646C6.60033 1.14484 6.32207 1.14484 6.15044 1.31646C5.97882 1.48808 5.97882 1.76631 6.15044 1.93793L6.77192 2.55941C6.94351 2.731 7.22181 2.73103 7.3934 2.55941C7.56502 2.38779 7.56502 2.10956 7.3934 1.93793Z" fill="white"/>
<path d="M12.3653 1.31646C12.1937 1.14484 11.9155 1.14484 11.7438 1.31646L11.1224 1.93791C10.9507 2.10953 10.9507 2.38776 11.1224 2.55938C11.294 2.731 11.5722 2.73103 11.7438 2.55941L12.3653 1.93794C12.5369 1.76631 12.5369 1.48808 12.3653 1.31646Z" fill="white"/>
</svg>
