<svg width="23" height="20" viewBox="0 0 23 20" fill="none" xmlns="http://www.w3.org/2000/svg">
<g clip-path="url(#clip0)">
<path d="M3.10706 1.28906C1.61441 1.28906 0.400024 2.39305 0.400024 3.75C0.400024 5.10695 1.61441 6.21094 3.10706 6.21094C4.5997 6.21094 5.81409 5.10695 5.81409 3.75C5.81409 2.39305 4.5997 1.28906 3.10706 1.28906Z" fill="#C8C7C9"/>
<path d="M3.10706 7.53906C1.61441 7.53906 0.400024 8.64305 0.400024 10C0.400024 11.357 1.61441 12.4609 3.10706 12.4609C4.5997 12.4609 5.81409 11.357 5.81409 10C5.81409 8.64305 4.5997 7.53906 3.10706 7.53906Z" fill="#C8C7C9"/>
<path d="M3.10706 13.7891C1.61441 13.7891 0.400024 14.893 0.400024 16.25C0.400024 17.607 1.61441 18.7109 3.10706 18.7109C4.5997 18.7109 5.81409 17.607 5.81409 16.25C5.81409 14.893 4.5997 13.7891 3.10706 13.7891Z" fill="#C8C7C9"/>
<path d="M20.3805 1.91406H9.29456C8.18098 1.91406 7.27502 2.73766 7.27502 3.75C7.27502 4.76234 8.18098 5.58594 9.29456 5.58594H20.3805C21.4941 5.58594 22.4 4.76234 22.4 3.75C22.4 2.73766 21.4941 1.91406 20.3805 1.91406Z" fill="#C8C7C9"/>
<path d="M20.3805 8.16406H9.29456C8.18098 8.16406 7.27502 8.98766 7.27502 10C7.27502 11.0123 8.18098 11.8359 9.29456 11.8359H20.3805C21.4941 11.8359 22.4 11.0123 22.4 10C22.4 8.98766 21.4941 8.16406 20.3805 8.16406Z" fill="#C8C7C9"/>
<path d="M20.3805 14.4141H9.29456C8.18098 14.4141 7.27502 15.2377 7.27502 16.25C7.27502 17.2623 8.18098 18.0859 9.29456 18.0859H20.3805C21.4941 18.0859 22.4 17.2623 22.4 16.25C22.4 15.2377 21.4941 14.4141 20.3805 14.4141Z" fill="#C8C7C9"/>
</g>
<defs>
<clipPath id="clip0">
<rect x="0.400024" width="22" height="20" fill="white"/>
</clipPath>
</defs>
</svg>
