<?xml version="1.0" encoding="UTF-8"?>
<svg width="36px" height="36px" viewBox="0 0 36 36" version="1.1" xmlns="http://www.w3.org/2000/svg" xmlns:xlink="http://www.w3.org/1999/xlink">
    <!-- Generator: Sketch 41.2 (35397) - http://www.bohemiancoding.com/sketch -->
    <title>close</title>
    <desc>Created with Sketch.</desc>
    <defs></defs>
    <g id="var-9" stroke="none" stroke-width="1" fill="none" fill-rule="evenodd">
        <g id="var-1" transform="translate(-904.000000, -162.000000)" fill="#9FAEC1">
            <g id="popup-fale">
                <path d="M922,178.585786 L917.045584,173.63137 C916.65777,173.243557 916.026563,173.245515 915.636039,173.636039 C915.242792,174.029286 915.243424,174.657638 915.63137,175.045584 L920.585786,180 L915.63137,184.954416 C915.243557,185.34223 915.245515,185.973437 915.636039,186.363961 C916.029286,186.757208 916.657638,186.756576 917.045584,186.36863 L922,181.414214 L926.954416,186.36863 C927.34223,186.756443 927.973437,186.754485 928.363961,186.363961 C928.757208,185.970714 928.756576,185.342362 928.36863,184.954416 L923.414214,180 L928.36863,175.045584 C928.756443,174.65777 928.754485,174.026563 928.363961,173.636039 C927.970714,173.242792 927.342362,173.243424 926.954416,173.63137 L922,178.585786 Z M922,198 C912.058875,198 904,189.941125 904,180 C904,170.058875 912.058875,162 922,162 C931.941125,162 940,170.058875 940,180 C940,189.941125 931.941125,198 922,198 Z M922,196 C930.836556,196 938,188.836556 938,180 C938,171.163444 930.836556,164 922,164 C913.163444,164 906,171.163444 906,180 C906,188.836556 913.163444,196 922,196 Z" id="close"></path>
            </g>
        </g>
    </g>
</svg>