<?xml version="1.0" encoding="UTF-8"?>
<svg width="34px" height="34px" viewBox="0 0 34 34" version="1.1" xmlns="http://www.w3.org/2000/svg" xmlns:xlink="http://www.w3.org/1999/xlink">
    <!-- Generator: Sketch 44.1 (41455) - http://www.bohemiancoding.com/sketch -->
    <title>Slice</title>
    <desc>Created with Sketch.</desc>
    <defs></defs>
    <g id="Page-1" stroke="none" stroke-width="1" fill="none" fill-rule="evenodd">
        <path d="M20.2133077,16.9046292 L24.7939726,12.3239643 C25.0050952,12.1127779 25.0050952,11.7704447 24.7939726,11.5592583 L22.25,9.01528573 C22.0388136,8.80416308 21.6964804,8.80416308 21.485294,9.01528573 L16.9046292,13.5959506 L12.3239643,9.01528573 C12.1127779,8.80416308 11.7704447,8.80416308 11.5592583,9.01528573 L9.01528573,11.5592583 C8.80416308,11.7704447 8.80416308,12.1127779 9.01528573,12.3239643 L13.5959506,16.9046292 L9.01528573,21.485294 C8.80416308,21.6964804 8.80416308,22.0388136 9.01528573,22.25 L11.5592583,24.7939726 C11.7704447,25.0050952 12.1127779,25.0050952 12.3239643,24.7939726 L16.9046292,20.2133077 L21.485294,24.7939726 C21.6964804,25.0050952 22.0388136,25.0050952 22.25,24.7939726 L24.7939726,22.25 C25.0050952,22.0388136 25.0050952,21.6964804 24.7939726,21.485294 L20.2133077,16.9046292 Z" id="d" fill="#FFFFFF" fill-rule="nonzero"></path>
    </g>
</svg>