<?xml version="1.0" encoding="utf-8"?>
<!-- Generator: Adobe Illustrator 21.0.2, SVG Export Plug-In . SVG Version: 6.00 Build 0)  -->
<svg version="1.1" id="Layer_1" xmlns="http://www.w3.org/2000/svg" xmlns:xlink="http://www.w3.org/1999/xlink" x="0px" y="0px"
	 viewBox="0 0 93.5 39" style="enable-background:new 0 0 93.5 39;" xml:space="preserve">
<style type="text/css">
	.st0{fill:#FFFFFF;}
</style>
<path id="arrow" class="st0" d="M84.4,34.3c-8,0-29.6-0.1-43.5-3.4C20.8,26,6.4,16.7,0.1,1.8c-0.2-0.5,0-1.1,0.6-1.3l0,0
	c0.5-0.2,1.1,0,1.3,0.5c6.1,14.2,22.6,24.2,39.4,27.9c2.2,0.5,15.3,3.4,43.1,3.4v-3.9c0-0.6,0.6-1,1.1-0.7l6.5,5.4l-6.5,5.4
	c-0.5,0.3-1.2-0.1-1.2-0.7V34.3z"/>
</svg>
